<?xml version="1.0" encoding="UTF-8" standalone="no"?>
<svg width="512" height="512" viewBox="0 0 512 512" version="1.1" xmlns="http://www.w3.org/2000/svg">
  <!-- Background rounded rect -->
  <rect width="512" height="512" rx="100" fill="#2563eb" />
  
  <!-- Centered and scaled original esd.svg paths -->
  <g transform="translate(88, 88) scale(14)">
    <g transform="matrix(0.479567,0,0,0.479567,-472.726,-160.274)">
        <g transform="matrix(0.0591122,0,0,0.0752966,990.718,388.58)">
            <path d="M450.937,-424.693L465.177,-413.513L439.934,-393.695L392.951,-430.579C385.98,-436.052 385.98,-444.924 392.951,-450.397L440.278,-487.551L465.522,-467.733L446.397,-452.719L538.984,-452.719L538.984,-525.676L523.221,-513.301L497.977,-533.119L544.96,-570.003C551.93,-575.475 563.232,-575.475 570.203,-570.003L617.53,-532.848L592.286,-513.031L574.685,-526.849L574.685,-452.719L668.708,-452.719L649.583,-467.733L674.827,-487.551L721.809,-450.667C728.78,-445.195 728.78,-436.322 721.809,-430.849L674.482,-393.695L649.239,-413.513L663.479,-424.693L574.685,-424.693L574.685,-352.074L592.286,-365.893L617.53,-346.075L570.548,-309.191C563.577,-303.718 552.275,-303.718 545.304,-309.191L497.977,-346.345L523.221,-366.163L538.984,-353.788L538.984,-424.693L450.937,-424.693Z" fill="white"/>
        </g>
        <g transform="matrix(0.0383542,0,0,0.06292,989.877,399.571)">
            <path d="M135.676,-472.055L211.48,-472.055L211.48,-409.105L-53.622,-409.105L-53.622,-472.055L16.895,-472.055L255.621,-728.129L147.258,-841.573L236.503,-873.249L619.725,-472.055L689.375,-472.055L689.375,-409.105L424.273,-409.105L424.273,-472.055L500.224,-472.055L315.733,-665.197L135.676,-472.055Z" fill="white"/>
        </g>
    </g>
  </g>
</svg>
